<?xml version="1.0" encoding="utf-8"?>
<!-- Generator: Adobe Illustrator 25.2.2, SVG Export Plug-In . SVG Version: 6.00 Build 0)  -->
<svg version="1.1" id="Layer_1" xmlns="http://www.w3.org/2000/svg" xmlns:xlink="http://www.w3.org/1999/xlink" x="0px" y="0px"
	 viewBox="0 0 1080 310.3" style="enable-background:new 0 0 1080 310.3;" xml:space="preserve">
<style type="text/css">
	.st0{fill:#231F20;}
</style>
<g>
	<path class="st0" d="M95.8,110.4c-4.9,5.3-11.7,8-20.4,8c-6.4,0-11.8-1.2-16.3-3.7s-8.1-5.8-10.9-9.9c-2.8-4.1-4.8-8.7-6.1-13.8
		c-1.3-5.1-1.9-10.4-1.9-15.8c0-5.7,0.6-11.2,1.9-16.5c1.3-5.3,3.3-10,6.1-14.2c2.8-4.2,6.4-7.5,10.9-9.9s9.9-3.7,16.3-3.7
		c3.5,0,6.8,0.6,10,1.7c3.2,1.1,6.1,2.7,8.6,4.8c2.5,2,4.6,4.4,6.3,7.1c1.7,2.7,2.8,5.7,3.3,9h27.5c-0.8-7.5-2.9-14.1-6.1-19.9
		c-3.3-5.8-7.4-10.6-12.4-14.6c-5-3.9-10.7-6.9-17-9S82.5,6.9,75.4,6.9c-9.9,0-18.8,1.8-26.7,5.2s-14.6,8.3-20,14.5
		c-5.4,6.1-9.6,13.4-12.5,21.6c-2.9,8.3-4.3,17.2-4.3,26.9c0,9.4,1.4,18.2,4.3,26.3c2.9,8.1,7.1,15.2,12.5,21.3
		c5.4,6,12.1,10.8,20,14.2s16.8,5.2,26.7,5.2c8,0,15.3-1.2,21.9-3.6c6.6-2.4,12.4-5.9,17.4-10.5c4.9-4.6,8.9-10.1,11.9-16.6
		c3-6.5,4.9-13.8,5.6-21.9h-27.5C103.7,98.1,100.7,105.1,95.8,110.4z"/>
	<path class="st0" d="M229.6,56.6c-4.2-4.3-9.3-7.6-15.3-10c-6-2.3-12.6-3.5-20-3.5c-7.4,0-14,1.2-19.9,3.5c-5.9,2.4-11,5.7-15.2,10
		c-4.2,4.3-7.5,9.5-9.8,15.6c-2.3,6.1-3.4,12.9-3.4,20.4c0,7.5,1.1,14.2,3.4,20.3c2.3,6,5.5,11.2,9.8,15.5c4.2,4.3,9.3,7.6,15.2,9.9
		c5.9,2.3,12.5,3.4,19.9,3.4c7.4,0,14-1.1,20-3.4c6-2.3,11.1-5.6,15.3-9.9c4.2-4.3,7.5-9.4,9.8-15.5c2.3-6,3.4-12.8,3.4-20.3
		c0-7.5-1.1-14.3-3.4-20.4C237.1,66.1,233.8,60.9,229.6,56.6z M216,103.5c-0.7,3.6-2,6.8-3.7,9.6c-1.8,2.8-4.1,5.1-7.1,6.8
		c-3,1.7-6.6,2.5-10.9,2.5c-4.3,0-8-0.8-10.9-2.5c-2.9-1.7-5.2-3.9-7-6.8c-1.8-2.8-3-6-3.7-9.6c-0.7-3.6-1.1-7.2-1.1-10.9
		c0-3.7,0.4-7.4,1.1-11c0.7-3.6,2-6.8,3.7-9.6c1.7-2.8,4.1-5,7-6.8c2.9-1.7,6.5-2.6,10.9-2.6c4.3,0,8,0.9,10.9,2.6
		c3,1.8,5.3,4,7.1,6.8c1.7,2.8,3,6,3.7,9.6c0.7,3.6,1.1,7.3,1.1,11C217.1,96.3,216.7,99.9,216,103.5z"/>
	<rect x="260.2" y="10" class="st0" width="25.7" height="129.2"/>
	<rect x="306.9" y="10" class="st0" width="25.7" height="129.2"/>
	<rect x="625" y="10" class="st0" width="25.7" height="21.2"/>
	<path class="st0" d="M922.6,204.7c-2.8,0-5.4,0.3-7.9,0.9c-2.5,0.6-4.7,1.6-6.6,3c-1.9,1.4-3.5,3.2-4.7,5.5s-2,5-2.4,8.4h39.6
		c-0.4-5.6-2.2-10-5.4-13.1C931.9,206.2,927.8,204.7,922.6,204.7z"/>
	<path class="st0" d="M869.2,138.7V81.7c0-5.8-0.5-11.1-1.5-15.8c-1-4.8-2.8-8.8-5.3-12.1c-2.5-3.3-6-5.9-10.4-7.8
		c-4.4-1.9-10-2.8-16.9-2.8c-5.4,0-10.7,1.2-15.9,3.7c-5.2,2.5-9.4,6.4-12.7,11.9h-0.5v-13h-24.4v93.1h-47.4
		c0.7-0.2,1.5-0.3,2.2-0.6c6-2.3,11.1-5.6,15.3-9.9c4.2-4.3,7.5-9.4,9.8-15.5c2.3-6,3.4-12.8,3.4-20.3c0-7.5-1.1-14.3-3.4-20.4
		c-2.3-6.1-5.6-11.3-9.8-15.6c-4.2-4.3-9.3-7.6-15.3-10c-6-2.3-12.6-3.5-20-3.5s-14,1.2-19.9,3.5c-5.9,2.4-11,5.7-15.2,10
		c-4.2,4.3-7.5,9.5-9.8,15.6c-2.3,6.1-3.4,12.9-3.4,20.4c0,7.5,1.1,14.2,3.4,20.3c2.3,6,5.5,11.2,9.8,15.5c4.2,4.3,9.3,7.6,15.2,9.9
		c0.7,0.3,1.5,0.4,2.2,0.6h-48V45.7H625v93.1h-13v-19.4c-1.2,0.2-2.5,0.4-3.8,0.5c-1.3,0.1-2.7,0.2-4.2,0.2c-4.3,0-7.2-0.7-8.7-2.2
		c-1.5-1.5-2.2-4.3-2.2-8.7V62.9h18.8V45.7h-18.8v-28h-25.7v28h-15.6v17.2h15.6v55.2c0,4.7,0.8,8.5,2.3,11.4
		c1.6,2.9,3.7,5.1,6.4,6.7c2.2,1.3,4.9,2,7.7,2.6h-65c4.7-1.6,9-3.9,12.7-6.9c8-6.5,12.8-16,14.5-28.4h-24.8
		c-0.8,5.8-2.9,10.4-6.2,13.8c-3.3,3.4-8.1,5.2-14.2,5.2c-4,0-7.4-0.9-10.1-2.7c-2.8-1.8-5-4.1-6.6-7c-1.6-2.8-2.8-6-3.5-9.5
		c-0.7-3.5-1.1-6.9-1.1-10.3c0-3.5,0.4-7,1.1-10.6c0.7-3.6,2-6.8,3.7-9.8c1.7-3,4-5.4,6.8-7.2c2.8-1.9,6.2-2.8,10.3-2.8
		c11,0,17.3,5.4,19,16.1h25.2c-0.4-6-1.8-11.3-4.3-15.7c-2.5-4.4-5.8-8.1-9.9-11c-4-3-8.6-5.2-13.8-6.6c-5.1-1.5-10.5-2.2-16-2.2
		c-7.6,0-14.4,1.3-20.3,3.8c-5.9,2.5-10.9,6.1-15,10.6c-4.1,4.5-7.2,9.9-9.3,16.1c-2.1,6.2-3.2,12.9-3.2,20.2c0,7,1.1,13.4,3.4,19.3
		c2.3,5.9,5.5,10.9,9.6,15.1c4.1,4.2,9.1,7.5,14.9,9.9c0.8,0.3,1.6,0.4,2.4,0.7h-70.4c3.4-1.1,6.6-2.5,9.5-4.4
		c7.5-4.8,13-12.8,16.6-24.1h-22.6c-0.8,2.9-3.1,5.6-6.9,8.2c-3.7,2.6-8.2,3.9-13.4,3.9c-7.2,0-12.8-1.9-16.6-5.6
		c-3.9-3.7-6-9.8-6.3-18.1h67.5c0.5-7.2-0.1-14.2-1.8-20.8c-1.7-6.6-4.4-12.5-8.2-17.7c-3.8-5.2-8.7-9.3-14.6-12.4
		c-5.9-3.1-12.8-4.6-20.8-4.6c-7.1,0-13.6,1.3-19.5,3.8c-5.9,2.5-10.9,6-15.1,10.4c-4.2,4.4-7.5,9.6-9.8,15.7
		c-2.3,6-3.4,12.5-3.4,19.5c0,7.2,1.1,13.9,3.3,19.9c2.2,6,5.4,11.2,9.5,15.6c4.1,4.3,9.1,7.7,15,10c0.8,0.3,1.7,0.4,2.5,0.7h-44.8
		v158.4h733.4V138.7H869.2z M694.8,103.5c-0.7-3.6-1.1-7.2-1.1-10.9c0-3.7,0.4-7.4,1.1-11c0.7-3.6,2-6.8,3.7-9.6
		c1.7-2.8,4.1-5,7-6.8c2.9-1.7,6.5-2.6,10.9-2.6c4.3,0,8,0.9,11,2.6c2.9,1.8,5.3,4,7.1,6.8c1.7,2.8,3,6,3.7,9.6
		c0.7,3.6,1.1,7.3,1.1,11c0,3.7-0.4,7.4-1.1,10.9c-0.7,3.6-2,6.8-3.7,9.6c-1.8,2.8-4.1,5.1-7.1,6.8c-3,1.7-6.6,2.5-11,2.5
		c-4.3,0-8-0.8-10.9-2.5c-2.9-1.7-5.2-3.9-7-6.8C696.8,110.2,695.5,107,694.8,103.5z M375.2,76.3c0.7-2.3,1.8-4.5,3.4-6.5
		c1.6-2.1,3.8-3.8,6.5-5.2c2.7-1.4,6.1-2.1,10.2-2.1c6.3,0,10.9,1.7,14,5.1s5.2,8.3,6.4,14.8H374C374.1,80.6,374.5,78.5,375.2,76.3z
		 M807.2,90.2c0-9.5,1.6-16.4,4.7-20.5c3.1-4.2,8.2-6.2,15.2-6.2c6.2,0,10.4,1.9,12.9,5.7c2.4,3.8,3.6,9.6,3.6,17.3v52.4h-36.4V90.2
		z M445.1,222.6l-60.2,34.6l-4.8-7.6l50.8-29.4l-50.6-30l4.8-7.9l60.1,36.7V222.6z M563.9,256.7c-1.8,1.1-3.9,2.1-6.2,3.1
		c-2.3,1-4.9,1.8-7.8,2.4c-2.8,0.6-5.9,0.9-9.2,0.9c-5.5,0-10.4-0.8-14.6-2.4c-4.2-1.6-7.7-3.8-10.5-6.8c-2.8-2.9-4.9-6.5-6.4-10.6
		c-1.5-4.1-2.2-8.7-2.2-13.7c0-5.3,0.7-10.1,2.2-14.3c1.5-4.2,3.6-7.6,6.4-10.5c2.8-2.8,6.2-4.9,10.2-6.4c4-1.5,8.5-2.2,13.4-2.2
		c6.3,0,11.4,0.6,15.4,1.7s7.3,2.3,10,3.7l-0.1,0.4v17.7h-9.2v-12.1c-2-0.7-4.1-1.3-6.3-1.7c-2.3-0.5-4.5-0.7-6.7-0.7
		c-8.3,0-14.5,2-18.6,5.9c-4.1,3.9-6.1,10.1-6.1,18.7c0,3.8,0.6,7.1,1.8,10c1.2,2.9,2.9,5.4,5.1,7.5c2.2,2,4.9,3.6,8,4.7
		c3.1,1.1,6.5,1.7,10.3,1.7c4,0,7.9-0.7,11.7-2.1c3.8-1.4,7-3.2,9.5-5.4l4.5,7.4C567.1,254.6,565.6,255.6,563.9,256.7z M643.1,243.5
		c-1.4,4.1-3.4,7.6-6,10.5c-2.6,2.9-5.9,5.1-9.8,6.7c-3.9,1.6-8.3,2.4-13.2,2.4c-5.3,0-9.9-0.9-13.8-2.6c-3.9-1.7-7.1-4.1-9.7-7.1
		c-2.6-3-4.4-6.5-5.7-10.6c-1.2-4.1-1.9-8.5-1.9-13.2c0-10.3,2.7-18.4,8-24.4c5.4-6,13-9,23-9c5.4,0,10,0.9,13.8,2.6
		c3.9,1.7,7.1,4.1,9.6,7.1c2.5,3,4.4,6.5,5.7,10.6c1.2,4.1,1.8,8.5,1.8,13.1C645.1,234.8,644.4,239.4,643.1,243.5z M715.3,182.4
		c-2.2-0.9-4.3-1.6-6.3-1.9c-2-0.3-3.9-0.4-5.6-0.4c-5.6,0-9.4,1.4-11.4,4.1c-2,2.8-3,7.3-3,13.6h26.4v8.5h-26.4V253h26.4v8.5h-51.7
		V253h15.2v-46.7h-15.2v-8.5h15.2v-3.6c0-8,2.1-13.8,6.3-17.3c4.2-3.6,10.1-5.4,17.8-5.4c2.8,0,5.3,0.2,7.5,0.5c2.2,0.3,4.6,1,7.1,2
		L715.3,182.4z M791.8,182.4c-2.2-0.9-4.3-1.6-6.3-1.9c-2-0.3-3.9-0.4-5.6-0.4c-5.6,0-9.4,1.4-11.4,4.1c-2,2.8-3,7.3-3,13.6h26.4
		v8.5h-26.4V253h26.4v8.5h-51.7V253h15.2v-46.7h-15.2v-8.5h15.2v-3.6c0-8,2.1-13.8,6.3-17.3c4.2-3.6,10.1-5.4,17.8-5.4
		c2.8,0,5.3,0.2,7.5,0.5c2.2,0.3,4.6,1,7.1,2L791.8,182.4z M830.2,248.5c4.1,3.8,9.6,5.7,16.5,5.7c2.3,0,4.6-0.3,6.8-0.8
		c2.3-0.5,4.4-1.2,6.4-2c2-0.8,3.8-1.6,5.4-2.5c1.6-0.9,2.8-1.8,3.6-2.5l3.9,7.3c-1.5,1.4-3.3,2.6-5.4,3.8c-2.1,1.2-4.4,2.2-6.8,3.1
		c-2.5,0.9-5,1.5-7.7,2s-5.4,0.7-8.1,0.7c-5.1,0-9.6-0.8-13.5-2.4c-3.9-1.6-7.2-3.8-9.8-6.8c-2.6-2.9-4.6-6.4-6-10.5
		c-1.4-4.1-2-8.7-2-13.8c0-5.3,0.7-10.1,2.2-14.3c1.5-4.2,3.6-7.6,6.4-10.5s6.2-4.9,10.2-6.4c4-1.5,8.5-2.2,13.4-2.2
		c3.6,0,7.1,0.5,10.6,1.4c3.5,0.9,6.6,2.7,9.2,5.3c2.7,2.6,4.7,6.2,6.2,10.7c1.4,4.6,1.9,10.4,1.5,17.7h-49.2
		C824.1,239,826.1,244.7,830.2,248.5z M906.8,248.5c4.1,3.8,9.6,5.7,16.5,5.7c2.3,0,4.6-0.3,6.8-0.8c2.3-0.5,4.4-1.2,6.4-2
		c2-0.8,3.8-1.6,5.4-2.5c1.6-0.9,2.8-1.8,3.6-2.5l3.9,7.3c-1.5,1.4-3.3,2.6-5.4,3.8c-2.1,1.2-4.4,2.2-6.8,3.1c-2.5,0.9-5,1.5-7.7,2
		c-2.7,0.5-5.4,0.7-8.1,0.7c-5.1,0-9.6-0.8-13.5-2.4c-3.9-1.6-7.2-3.8-9.8-6.8c-2.6-2.9-4.6-6.4-6-10.5c-1.4-4.1-2-8.7-2-13.8
		c0-5.3,0.8-10.1,2.2-14.3s3.6-7.6,6.4-10.5c2.8-2.8,6.2-4.9,10.2-6.4c4-1.5,8.5-2.2,13.4-2.2c3.6,0,7.1,0.5,10.6,1.4
		c3.5,0.9,6.6,2.7,9.2,5.3s4.7,6.2,6.2,10.7c1.4,4.6,2,10.4,1.5,17.7h-49.2C900.6,239,902.7,244.7,906.8,248.5z M1028,268.9h-62.2
		V260h62.2V268.9z"/>
	<path class="st0" d="M629.9,212.7c-1.6-2.4-3.8-4.3-6.4-5.7c-2.6-1.5-5.7-2.2-9.5-2.2c-6.8,0-11.9,2.1-15.3,6.3s-5.1,10.4-5.1,18.6
		c0,3,0.4,6,1.1,8.9s1.9,5.7,3.5,8c1.6,2.4,3.7,4.3,6.3,5.7c2.6,1.5,5.7,2.2,9.5,2.2c6.8,0,11.9-2.1,15.3-6.3
		c3.4-4.2,5.1-10.4,5.1-18.6c0-3-0.4-6.1-1.1-9C632.7,217.8,631.5,215.1,629.9,212.7z"/>
	<path class="st0" d="M846.1,204.7c-2.8,0-5.4,0.3-8,0.9c-2.5,0.6-4.7,1.6-6.6,3c-1.9,1.4-3.5,3.2-4.7,5.5c-1.2,2.3-2,5-2.4,8.4H864
		c-0.4-5.6-2.2-10-5.4-13.1C855.4,206.2,851.2,204.7,846.1,204.7z"/>
</g>
</svg>
