<?xml version="1.0" encoding="utf-8"?>
<!-- Generator: Adobe Illustrator 25.2.2, SVG Export Plug-In . SVG Version: 6.00 Build 0)  -->
<svg version="1.1" id="Layer_1" xmlns="http://www.w3.org/2000/svg" xmlns:xlink="http://www.w3.org/1999/xlink" x="0px" y="0px"
	 viewBox="0 0 1080 1080" style="enable-background:new 0 0 1080 1080;" xml:space="preserve">
<style type="text/css">
	.st0{fill:#231F20;}
	.st1{fill:#FFFFFF;}
</style>
<g>
	<g>
		<rect x="48.4" y="48.4" className="st0" width="983.1" height="983.1"/>
	</g>
	<g>
		<path className="st1" d="M647.1,415.7c-12.2-4.2-25.3-7.8-39.3-10.7c-13.9-2.8-27.8-4.3-41.5-4.3c-51.8,0-90.3,12.1-115.6,36.5
			c-25.3,24.3-38,63-38,115.9c0,23.3,3.7,44.1,11.1,62.3c7.4,18.3,17.9,33.8,31.6,46.5c13.7,12.7,30.2,22.5,49.5,29.4
			c19.3,6.9,40.6,10.3,63.7,10.3c24.8,0,49-4.3,72.4-12.9c23.5-8.6,43.2-19.8,59-33.9l27.8,46c-7.5,6.3-16.7,12.9-27.8,19.8
			s-23.9,13.3-38.4,19.4c-14.5,6.1-30.6,10.9-48.3,14.6s-36.9,5.6-57.4,5.6c-34.4,0-64.5-4.9-90.6-14.7
			c-26.2-9.7-47.9-23.7-65.4-41.9c-17.4-18.2-30.6-40.1-39.6-65.7c-8.9-25.6-13.4-54-13.4-85.1c0-33.2,4.6-62.8,13.8-88.7
			c9.2-25.9,22.6-47.5,40-65c17.4-17.4,38.6-30.7,63.4-40c24.7-9.2,52.5-13.8,83.1-13.8c39.1,0,70.9,3.4,95.5,10.2
			c24.6,6.9,45.3,14.6,62.1,23l-0.8,2.3v110.1h-57V415.7z"/>
	</g>
</g>
</svg>
